<svg width="125" height="40" viewBox="0 0 125 40" fill="none" xmlns="http://www.w3.org/2000/svg">
<path fill-rule="evenodd" clip-rule="evenodd" d="M22.6976 33.3327H15.1318C9.95091 33.3327 5.75684 29.0827 5.75684 23.8327V16.166C5.75684 10.916 9.95091 6.66602 15.1318 6.66602H22.6976C27.8785 6.66602 32.0726 10.916 32.0726 16.166V23.8327C32.0726 29.0827 27.8785 33.3327 22.6976 33.3327ZM20.8887 20.666C20.8887 21.8327 19.8196 23.166 18.9972 23.8327C17.9281 22.8327 17.1058 21.666 17.1058 20.666C17.1058 19.0827 18.3393 17.4993 18.915 16.9993C19.5729 17.5827 20.8064 19.3327 20.8887 20.666ZM25.3289 13.1663C27.2204 14.9997 28.2072 17.4997 28.2072 20.083C28.2895 23.1663 26.7269 26.1663 24.0131 27.9163C23.9273 27.9685 23.8487 28.0171 23.7734 28.0635C23.4882 28.2395 23.2523 28.3852 22.8618 28.583C22.2039 28.833 21.4638 28.4997 20.8059 28.083C19.2434 27.1663 14.7204 24.2497 14.7204 20.7497C14.7204 18.4163 17.4342 14.7497 18.75 14.7497C20.148 14.7497 22.8618 18.583 22.8618 20.7497C22.8618 22.6663 21.4638 24.4163 20.4769 25.333C20.7813 25.4652 21.0397 25.6439 21.2764 25.8077C21.4874 25.9537 21.6812 26.0878 21.875 26.1663C22.1217 26.333 22.4506 26.333 22.6973 26.1663C24.4243 25.1663 26.0691 22.583 26.0691 19.9997C26.0691 17.9997 25.2467 16.083 23.8487 14.7497C22.4506 13.333 20.4769 12.583 18.5033 12.6663C14.7204 12.9163 11.7598 16.083 11.6776 19.9163C11.6776 23.083 13.5691 25.833 16.5296 26.9163L16.8585 27.083C17.4342 27.333 17.6809 27.9997 17.4342 28.4997C17.1875 28.9997 16.6118 29.2497 16.1184 29.083C14.7204 28.583 13.4868 27.9163 12.5 26.9163C8.79931 23.333 8.63484 17.4163 12.171 13.583C15.7072 9.74966 21.546 9.583 25.3289 13.1663Z" fill="#23AB96"/>
<path fill-rule="evenodd" clip-rule="evenodd" d="M49.3424 10C49.3424 11.25 49.0135 13.3333 47.0398 13.3333H43.6681V28.3333C43.6681 28.3333 40.7076 28.3333 40.7076 26.75V13.4167H37.6648C35.5267 13.3333 35.3622 14.1667 35.3622 14.1667C35.3622 14.1667 34.7865 10.3333 38.076 10.4167H46.6286C48.5201 10.4167 49.3424 10 49.3424 10ZM52.4854 22.5768C53.3703 22.377 54.201 22.1895 54.4418 21.6667L54.3595 25.6667C53.6194 25.9167 52.8793 26.0834 52.0569 26.0834C50.6589 26.0834 49.9187 25.5 49.9187 24.4167C49.9187 23.1563 51.2546 22.8547 52.4854 22.5768ZM54.2763 19.1668C54.2763 18.2502 53.7829 17.5002 51.9737 17.5002C49.9178 17.5002 48.0263 18.2502 48.0263 20.2502C47.4507 19.5835 47.1217 18.6668 47.1217 17.8335C47.1217 15.6668 49.9178 15.0835 51.8915 15.0835C55.4276 15.0835 57.4013 16.5835 57.4013 19.3335V28.3335C56.8257 28.0835 56.1678 27.9168 55.5921 27.9168C55.0444 27.9168 54.478 28.0111 53.8842 28.11C53.2299 28.219 52.5421 28.3335 51.8092 28.3335C49.2599 28.3335 46.875 27.3335 46.875 24.4168C46.875 21.6281 49.37 21.0157 51.4829 20.497C52.7796 20.1787 53.9323 19.8957 54.2763 19.1668ZM68.0103 26.6669V19.5835C68.0103 18.2502 67.4346 17.5002 65.6254 17.5002L65.5132 17.5115C64.7213 17.5914 63.8612 17.6782 63.0761 17.9169V28.2502C63.0761 28.2502 60.1978 28.2502 60.1978 26.6669V15.0002C60.8557 15.4168 61.5958 15.5835 62.3359 15.5835C62.9428 15.5835 63.5098 15.4424 64.0859 15.2989C64.681 15.1508 65.2858 15.0002 65.9544 15.0002C68.4215 15.0002 70.9708 15.8335 70.9708 19.0835V28.2502C70.9708 28.2502 68.0103 28.1669 68.0103 26.6669ZM73.8493 26.6668C73.8493 28.2501 76.8098 28.2501 76.8098 28.2501V16.7501C76.8098 15.1668 74.096 15.1668 73.8493 15.1668V26.6668ZM75.3297 10.3332C76.2343 10.3332 76.9744 11.0832 76.9744 11.9999C76.8922 12.8332 76.2343 13.5832 75.3297 13.6665C74.425 13.6665 73.6849 12.9165 73.6849 11.9999C73.6849 11.0832 74.425 10.3332 75.3297 10.3332ZM89.3097 26.6667C89.3097 28.2501 92.2703 28.2501 92.2703 28.2501V11.8334C92.2703 10.2501 89.3097 10.2501 89.3097 10.2501V17.9167H82.9775V11.9167C82.9775 10.3334 80.0992 10.3334 80.0992 10.3334V26.6667C80.0992 28.2501 82.9775 28.2501 82.9775 28.2501V20.3334H89.3097V26.6667ZM97.7803 16.8334V23.9167C97.7803 25.2501 98.356 26.0001 100.001 26.0001C100.823 25.9167 101.645 25.8334 102.468 25.5834V15.2501C102.468 15.2501 105.428 15.2501 105.428 16.8334V28.3334C104.77 28.0001 104.03 27.8334 103.29 27.8334C102.734 27.8334 102.197 27.9502 101.641 28.0709C101.048 28.1999 100.434 28.3334 99.754 28.3334C97.2047 28.3334 94.8198 27.5001 94.8198 24.3334V15.2501C94.8198 15.2501 97.7803 15.3334 97.7803 16.8334ZM111.103 25.6667C111.761 25.9167 112.418 26.0834 113.159 26.0834C115.132 26.0834 115.872 25.3334 115.872 23.75V20.25C115.872 18.6667 114.886 17.9167 113.734 17.9167C112.418 17.9167 111.185 18.75 111.185 19.9167L111.103 25.6667ZM113.241 28.3334C116.941 28.3334 118.833 27.0834 118.833 24.3334V19.75C118.833 17 116.612 15.5834 114.063 15.5834C112.089 15.5834 111.185 16.3334 111.185 16.3334V12.25C111.185 10.4167 108.471 10.4167 108.224 10.4167V28.3334C109.047 27.8334 109.951 27.8334 110.527 27.9167C110.778 27.963 111.011 28.0158 111.24 28.0678C111.835 28.203 112.409 28.3334 113.241 28.3334Z" fill="#23AB96"/>
</svg>
