<svg width="42" height="42" viewBox="0 0 42 42" fill="none" xmlns="http://www.w3.org/2000/svg">
<path fill-rule="evenodd" clip-rule="evenodd" d="M26.888 41.48H15.112C7.04802 41.48 0.52002 34.952 0.52002 26.888V15.112C0.52002 7.04802 7.04802 0.52002 15.112 0.52002H26.888C34.952 0.52002 41.48 7.04802 41.48 15.112V26.888C41.48 34.952 34.952 41.48 26.888 41.48ZM24.072 22.0242C24.072 23.8162 22.408 25.8642 21.128 26.8882C19.464 25.3522 18.184 23.5602 18.184 22.0242C18.184 19.5922 20.104 17.1602 21 16.3922C22.024 17.2882 23.944 19.9762 24.072 22.0242ZM30.9842 10.5042C33.9282 13.3202 35.4642 17.1602 35.4642 21.1282C35.5922 25.8642 33.1602 30.4722 28.9362 33.1602C28.8026 33.2403 28.6802 33.3149 28.5631 33.3862C28.1191 33.6566 27.7519 33.8803 27.1442 34.1842C26.1202 34.5682 24.9682 34.0562 23.9442 33.4162C21.5122 32.0082 14.4722 27.5282 14.4722 22.1522C14.4722 18.5682 18.6962 12.9362 20.7442 12.9362C22.9202 12.9362 27.1442 18.8242 27.1442 22.1522C27.1442 25.0962 24.9682 27.7842 23.4322 29.1922C23.9059 29.3952 24.3081 29.6698 24.6765 29.9213C25.0049 30.1456 25.3065 30.3515 25.6082 30.4722C25.9922 30.7282 26.5042 30.7282 26.8882 30.4722C29.5762 28.9362 32.1362 24.9682 32.1362 21.0002C32.1362 17.9282 30.8562 14.9842 28.6802 12.9362C26.5042 10.7602 23.4322 9.60816 20.3602 9.73616C14.4722 10.1202 9.86416 14.9842 9.73616 20.8722C9.73616 25.7362 12.6802 29.9602 17.2882 31.6242L17.8002 31.8802C18.6962 32.2642 19.0802 33.2882 18.6962 34.0562C18.3122 34.8242 17.4162 35.2082 16.6482 34.9522C14.4722 34.1842 12.5522 33.1602 11.0162 31.6242C5.25616 26.1202 5.00016 17.0322 10.5042 11.1442C16.0082 5.25616 25.0962 5.00016 30.9842 10.5042Z" fill="#008F7E"/>
</svg>
